<?xml version="1.0" encoding="UTF-8" standalone="no"?>
<!-- Created with Inkscape (http://www.inkscape.org/) -->

<svg
   xmlns:dc="http://purl.org/dc/elements/1.1/"
   xmlns:cc="http://creativecommons.org/ns#"
   xmlns:rdf="http://www.w3.org/1999/02/22-rdf-syntax-ns#"
   xmlns:svg="http://www.w3.org/2000/svg"
   xmlns="http://www.w3.org/2000/svg"
   xmlns:xlink="http://www.w3.org/1999/xlink"
   xmlns:sodipodi="http://sodipodi.sourceforge.net/DTD/sodipodi-0.dtd"
   xmlns:inkscape="http://www.inkscape.org/namespaces/inkscape"
   width="400"
   height="400"
   viewBox="0 0 105.83334 105.83334"
   version="1.1"
   id="svg8"
   inkscape:version="0.92.3 (2405546, 2018-03-11)"
   sodipodi:docname="logo.svg"
   inkscape:export-filename="/home/seba/Documenti/Projects/JS/quizzer/react-ui/src/logo.png"
   inkscape:export-xdpi="96"
   inkscape:export-ydpi="96">
  <defs
     id="defs2">
    <clipPath
       clipPathUnits="userSpaceOnUse"
       id="clipPath5221">
      <use
         x="0"
         y="0"
         xlink:href="#g5217"
         id="use5223"
         width="100%"
         height="100%" />
    </clipPath>
  </defs>
  <sodipodi:namedview
     id="base"
     pagecolor="#ffffff"
     bordercolor="#666666"
     borderopacity="1.0"
     inkscape:pageopacity="0"
     inkscape:pageshadow="2"
     inkscape:zoom="1.572863"
     inkscape:cx="214.94477"
     inkscape:cy="207.33041"
     inkscape:document-units="mm"
     inkscape:current-layer="layer2"
     showgrid="false"
     units="px"
     showguides="true"
     inkscape:window-width="1920"
     inkscape:window-height="1016"
     inkscape:window-x="0"
     inkscape:window-y="27"
     inkscape:window-maximized="1"
     inkscape:pagecheckerboard="false" />
  <metadata
     id="metadata5">
    <rdf:RDF>
      <cc:Work
         rdf:about="">
        <dc:format>image/svg+xml</dc:format>
        <dc:type
           rdf:resource="http://purl.org/dc/dcmitype/StillImage" />
        <dc:title></dc:title>
      </cc:Work>
    </rdf:RDF>
  </metadata>
  <g
     inkscape:label="Base"
     inkscape:groupmode="layer"
     id="layer1"
     transform="translate(0,-191.16665)"
     style="display:none">
    <path
       style="fill:#10bccd;fill-opacity:1;stroke-width:0.34139776"
       d="m 66.145832,183.75314 a 47.100941,47.100941 0 0 0 -47.101014,47.10101 47.100941,47.100941 0 0 0 47.101014,47.10102 47.100941,47.100941 0 0 0 47.101018,-47.10102 47.100941,47.100941 0 0 0 -47.101018,-47.10101 z m 0,14.30484 A 32.621164,32.796443 0 0 1 98.767238,230.85415 32.621164,32.796443 0 0 1 66.145832,263.65032 32.621164,32.796443 0 0 1 33.52443,230.85415 32.621164,32.796443 0 0 1 66.145832,198.05798 Z"
       id="path3727"
       inkscape:connector-curvature="0" />
    <path
       style="display:inline;fill:#10bccd;fill-opacity:1;stroke-width:0.34139776"
       d="m 66.145829,183.75315 a 47.100942,47.100942 0 0 0 -47.101014,47.10101 47.100942,47.100942 0 0 0 47.101014,47.10102 47.100942,47.100942 0 0 0 47.101021,-47.10102 47.100942,47.100942 0 0 0 -47.101021,-47.10101 z m 0,14.30484 a 32.621164,32.796443 0 0 1 32.62141,32.79617 32.621164,32.796443 0 0 1 -32.62141,32.79617 32.621164,32.796443 0 0 1 -32.621402,-32.79617 32.621164,32.796443 0 0 1 32.621402,-32.79617 z"
       id="path3727-9"
       inkscape:connector-curvature="0" />
    <rect
       style="display:inline;fill:#00bccd;fill-opacity:1;stroke-width:0.27091962"
       id="rect5038-1"
       width="46.801582"
       height="13.410037"
       x="219.25591"
       y="103.89844"
       transform="matrix(0.68214918,0.73121303,-0.65857033,0.75251919,0,0)"
       ry="6.7050185"
       rx="23.400791" />
  </g>
  <g
     inkscape:groupmode="layer"
     id="layer2"
     inkscape:label="Moving"
     style="display:inline"
     transform="translate(0,-26.458333)">
    <g
       id="g5219"
       clip-path="url(#clipPath5221)"
       transform="translate(-13.229164,12.949643)">
      <g
         inkscape:label="Clip"
         id="g5217">
        <path
           id="rect5038-7"
           transform="matrix(0.68214918,0.73121303,-0.65857033,0.75251919,0,0)"
           style="display:inline;fill:#00bccd;fill-opacity:1;stroke-width:0.27091962"
           d="m 133.62705,-9.0348034 c 12.96404,0 23.40079,2.9904383 23.40079,6.7050185 0,3.7145803 -10.43675,6.7050186 -23.40079,6.7050186 -12.96404,0 -23.40079,-2.9904383 -23.40079,-6.7050186 0,-3.7145802 10.43675,-6.7050185 23.40079,-6.7050185 z M 62.638575,-35.55729 C 42.962506,-16.438355 40.971141,13.519641 58.190741,31.355707 75.410292,49.191821 105.32011,48.151848 124.99614,29.03287 144.67221,9.9139333 146.66357,-20.04406 129.44398,-37.880127 112.22442,-55.716239 82.314601,-54.67627 62.638575,-35.55729 Z m 9.469326,9.808356 c 13.627052,-13.241302 34.393679,-13.907944 46.383779,-1.488993 11.99002,12.419295 17.02574,39.556794 3.39847,52.798171 C 108.26298,38.802038 81.132795,33.133324 69.142645,20.713885 57.15284,8.2943807 58.480432,-12.507757 72.107901,-25.748934 Z"
           inkscape:connector-curvature="0" />
      </g>
    </g>
    <flowRoot
       xml:space="preserve"
       id="flowRoot5225"
       style="font-style:normal;font-weight:normal;font-size:40px;line-height:1.25;font-family:sans-serif;letter-spacing:0px;word-spacing:0px;fill:#000000;fill-opacity:1;stroke:none"><flowRegion
         id="flowRegion5227"><rect
           id="rect5229"
           width="66.12146"
           height="77.565559"
           x="211.71584"
           y="219.61957" /></flowRegion><flowPara
         id="flowPara5231" /></flowRoot>  </g>
</svg>
